<svg xmlns="http://www.w3.org/2000/svg" xmlns:xlink="http://www.w3.org/1999/xlink" width="70" height="16" viewBox="0 0 70 16"><defs><path id="a" d="M154.03 997.47a6.2 6.2 0 0 1-1.71 4.36 6 6 0 0 1-9.84-1.95 6.27 6.27 0 0 1 1.26-6.75 5.91 5.91 0 0 1 6.57-1.37 6.16 6.16 0 0 1 3.72 5.71zm-8.8 2.97c.75.77 1.78 1.2 2.85 1.18a3.78 3.78 0 0 0 2.81-1.19 4 4 0 0 0 1.09-2.91 4.1 4.1 0 0 0-1.92-3.68 3.9 3.9 0 0 0-4.08 0 4.1 4.1 0 0 0-1.92 3.68 4.13 4.13 0 0 0 1.17 2.92zm14.9-5.41h1.96v8.36h-1.81v-.8a2.92 2.92 0 0 1-2.34 1.01c-1.9 0-3.11-1.13-3.12-4.07v-4.45h1.96v4.09c0 2.22.61 2.67 1.55 2.67a1.7 1.7 0 0 0 1.48-.77c.28-.63.39-1.33.31-2.01zm7.38-.32c1.12.01 2.19.48 2.97 1.31a4.3 4.3 0 0 1 1.14 3.1 4.2 4.2 0 0 1-1.06 3.09 3.96 3.96 0 0 1-2.91 1.36 3.43 3.43 0 0 1-2.83-1.26v1.08h-1.79v-12.31h1.95v4.71a3.23 3.23 0 0 1 2.53-1.08zm-.22 7.03c.66.01 1.29-.27 1.74-.76a2.4 2.4 0 0 0 .62-1.83 2.54 2.54 0 0 0-.66-1.83c-.46-.5-1.1-.77-1.76-.76a2.56 2.56 0 0 0-2.5 2.62 2.56 2.56 0 0 0 2.56 2.56zm-12.43 4.89c-.87.24-1.77.36-2.67.37-1-.02-2-.17-2.97-.45a7.03 7.03 0 0 0-3.83-.14l.92-2.21a9.56 9.56 0 0 1 3.36.39c1.7.52 3.5.51 5.19-.05zm33.78-11.66h1.95v8.36h-1.81v-.8a2.93 2.93 0 0 1-2.34 1c-1.9 0-3.12-1.12-3.12-4.06v-4.45h1.97v4.09c0 2.22.6 2.63 1.55 2.62.59.03 1.16-.26 1.49-.77.27-.63.37-1.32.3-2.01zm9.22-3.93h1.95v12.31h-1.77v-1.15a3.3 3.3 0 0 1-2.69 1.29 4.04 4.04 0 0 1-2.96-1.3 4.32 4.32 0 0 1-1.15-3.09 4.37 4.37 0 0 1 1.13-3.09 4.11 4.11 0 0 1 2.94-1.36c.95-.03 1.87.34 2.55 1.03zm-2.21 10.6a2.56 2.56 0 0 0 2.5-2.62 2.56 2.56 0 0 0-2.56-2.56c-.65 0-1.26.28-1.71.76a2.49 2.49 0 0 0-.67 1.78 2.6 2.6 0 0 0 .67 1.87c.46.51 1.1.8 1.77.81zm5.06-6.7h1.97v8.36h-1.96zm0-3.94h1.96v1.86h-1.96zm6.91 3.72a4.33 4.33 0 0 1 3.1 1.29 4.53 4.53 0 0 1 1.28 3.16 4.32 4.32 0 0 1-4.29 4.31 4.32 4.32 0 0 1-4.25-4.35 4.34 4.34 0 0 1 4.2-4.41zm.05 6.92a2.45 2.45 0 0 0 2.34-2.55c0-1.03-.62-1.96-1.56-2.34a2.43 2.43 0 0 0-2.71.61 2.6 2.6 0 0 0-.45 2.8 2.46 2.46 0 0 0 2.37 1.48zm-27.17-6.66h2.15v1.84h-2.16v2.26c0 2.22.77 2.67 1.56 2.67h.6v1.84h-1c-1.9 0-3.12-1.12-3.12-4.07v-2.67h-1.11V995h1.1v-2.34h1.96zm-2.06 7.39a3.45 3.45 0 0 1-3.41 3.32 3.45 3.45 0 0 1-3.41-3.32c.01-.22.03-.44.07-.66h1.98c-.1.23-.15.47-.14.72 0 .85.67 1.54 1.5 1.54s1.51-.69 1.51-1.54c0-.81-.57-1.51-1.74-1.91-2.22-.78-2.61-2.06-2.61-2.79-.01-.72.26-1.41.75-1.93.49-.51 1.16-.8 1.86-.8h1.93v1.89h-1.93a.66.66 0 0 0-.5.23.73.73 0 0 0-.18.53c0 .37.38.72 1.17 1 1.95.66 3.16 2.03 3.16 3.72z"/></defs><g transform="translate(-142 -991)"><use fill="#f8e71c" xlink:href="#a"/></g></svg>